<svg width="76" height="76" viewBox="0 0 76 76" fill="none" xmlns="http://www.w3.org/2000/svg">
	<circle cx="38" cy="38" r="38" fill="#014ED7" />
	<path
		d="M15.5 38C15.5 29.5153 15.5 25.2717 18.137 22.637C20.774 20.0022 25.0153 20 33.5 20H42.5C50.9847 20 55.2282 20 57.863 22.637C60.4977 25.274 60.5 29.5153 60.5 38V42.5C60.5 50.9847 60.5 55.2282 57.863 57.863C55.226 60.4977 50.9847 60.5 42.5 60.5H33.5C25.0153 60.5 20.7717 60.5 18.137 57.863C15.5022 55.226 15.5 50.9847 15.5 42.5V38Z"
		stroke="white" stroke-width="2" />
	<path d="M26.75 20V16.625M49.25 20V16.625M16.625 31.25H59.375" stroke="white" stroke-width="2"
		stroke-linecap="round" />
	<path
		d="M51.5 49.25C51.5 49.8467 51.2629 50.419 50.841 50.841C50.419 51.2629 49.8467 51.5 49.25 51.5C48.6533 51.5 48.081 51.2629 47.659 50.841C47.2371 50.419 47 49.8467 47 49.25C47 48.6533 47.2371 48.081 47.659 47.659C48.081 47.2371 48.6533 47 49.25 47C49.8467 47 50.419 47.2371 50.841 47.659C51.2629 48.081 51.5 48.6533 51.5 49.25ZM51.5 40.25C51.5 40.8467 51.2629 41.419 50.841 41.841C50.419 42.2629 49.8467 42.5 49.25 42.5C48.6533 42.5 48.081 42.2629 47.659 41.841C47.2371 41.419 47 40.8467 47 40.25C47 39.6533 47.2371 39.081 47.659 38.659C48.081 38.2371 48.6533 38 49.25 38C49.8467 38 50.419 38.2371 50.841 38.659C51.2629 39.081 51.5 39.6533 51.5 40.25ZM40.25 49.25C40.25 49.8467 40.0129 50.419 39.591 50.841C39.169 51.2629 38.5967 51.5 38 51.5C37.4033 51.5 36.831 51.2629 36.409 50.841C35.9871 50.419 35.75 49.8467 35.75 49.25C35.75 48.6533 35.9871 48.081 36.409 47.659C36.831 47.2371 37.4033 47 38 47C38.5967 47 39.169 47.2371 39.591 47.659C40.0129 48.081 40.25 48.6533 40.25 49.25ZM40.25 40.25C40.25 40.8467 40.0129 41.419 39.591 41.841C39.169 42.2629 38.5967 42.5 38 42.5C37.4033 42.5 36.831 42.2629 36.409 41.841C35.9871 41.419 35.75 40.8467 35.75 40.25C35.75 39.6533 35.9871 39.081 36.409 38.659C36.831 38.2371 37.4033 38 38 38C38.5967 38 39.169 38.2371 39.591 38.659C40.0129 39.081 40.25 39.6533 40.25 40.25ZM29 49.25C29 49.8467 28.7629 50.419 28.341 50.841C27.919 51.2629 27.3467 51.5 26.75 51.5C26.1533 51.5 25.581 51.2629 25.159 50.841C24.7371 50.419 24.5 49.8467 24.5 49.25C24.5 48.6533 24.7371 48.081 25.159 47.659C25.581 47.2371 26.1533 47 26.75 47C27.3467 47 27.919 47.2371 28.341 47.659C28.7629 48.081 29 48.6533 29 49.25ZM29 40.25C29 40.8467 28.7629 41.419 28.341 41.841C27.919 42.2629 27.3467 42.5 26.75 42.5C26.1533 42.5 25.581 42.2629 25.159 41.841C24.7371 41.419 24.5 40.8467 24.5 40.25C24.5 39.6533 24.7371 39.081 25.159 38.659C25.581 38.2371 26.1533 38 26.75 38C27.3467 38 27.919 38.2371 28.341 38.659C28.7629 39.081 29 39.6533 29 40.25Z"
		fill="white" />
</svg>