<svg width="76" height="76" viewBox="0 0 76 76" fill="none" xmlns="http://www.w3.org/2000/svg">
	<circle cx="38" cy="38" r="38" fill="#014ED7" />
	<path
		d="M37.75 14C44.0489 14 50.0898 16.5022 54.5438 20.9562C58.9978 25.4102 61.5 31.4511 61.5 37.75C61.5 44.0489 58.9978 50.0898 54.5438 54.5438C50.0898 58.9978 44.0489 61.5 37.75 61.5C31.4511 61.5 25.4102 58.9978 20.9562 54.5438C16.5022 50.0898 14 44.0489 14 37.75C14 31.4511 16.5022 25.4102 20.9562 20.9562C25.4102 16.5022 31.4511 14 37.75 14ZM37.75 16.5C32.1142 16.5 26.7091 18.7388 22.724 22.724C18.7388 26.7091 16.5 32.1142 16.5 37.75C16.5 43.3859 18.7388 48.7909 22.724 52.776C26.7091 56.7612 32.1142 59 37.75 59C40.5406 59 43.3039 58.4504 45.882 57.3824C48.4602 56.3145 50.8028 54.7493 52.776 52.776C54.7493 50.8028 56.3145 48.4602 57.3824 45.882C58.4504 43.3039 59 40.5406 59 37.75C59 32.1142 56.7612 26.7091 52.776 22.724C48.7909 18.7388 43.3859 16.5 37.75 16.5ZM36.5 25.25C36.5 24.5596 37.0596 24 37.75 24C38.4404 24 39 24.5596 39 25.25V37.55L49.6651 43.6994C50.2645 44.0451 50.4708 44.8109 50.126 45.4108C49.7804 46.0121 49.0125 46.2188 48.4119 45.8722L36.5 39V25.25Z"
		fill="white" />
</svg>