<svg width="76" height="76" viewBox="0 0 76 76" fill="none" xmlns="http://www.w3.org/2000/svg">
	<circle cx="38" cy="38" r="38" fill="#014ED7" />
	<path
		d="M38.0025 57.0003C35.4141 57.0003 32.9874 56.5134 30.7225 55.5396C28.4576 54.5658 26.4813 53.2327 24.7935 51.5403C23.1058 49.8478 21.7726 47.8723 20.7942 45.6136C19.9636 43.6964 19.4873 41.6581 19.3651 39.4987C19.3287 38.8556 19.8551 38.3336 20.4991 38.3336C21.1441 38.3336 21.6627 38.8572 21.7026 39.5009C21.9535 43.5474 23.5267 47.0184 26.4222 49.9139C29.5924 53.0842 33.4518 54.6685 38.0002 54.6669C42.5486 54.6654 46.4088 53.081 49.5805 49.9139C52.7523 46.7468 54.3366 42.8867 54.3335 38.3336C54.3304 33.7805 52.7461 29.9212 49.5805 26.7556C46.415 23.5901 42.5549 22.0049 38.0002 22.0003H37.1135L40.0834 24.972C40.5397 25.4286 40.5427 26.1676 40.0901 26.6279C39.6308 27.095 38.8784 27.0967 38.4169 26.6318L33.3876 21.5654C32.9608 21.1354 32.9632 20.4409 33.393 20.0139L38.5051 14.9355C38.9691 14.4745 39.7195 14.4789 40.1781 14.9453C40.6323 15.4072 40.6292 16.1489 40.1711 16.607L37.1112 19.6669H38.0002C40.5902 19.6669 43.0161 20.1538 45.2779 21.1276C47.5396 22.1014 49.5168 23.4345 51.2092 25.1269C52.9016 26.8194 54.234 28.7949 55.2062 31.0536C56.1784 33.3123 56.6653 35.7389 56.6669 38.3336C56.6684 40.9283 56.1815 43.3549 55.2062 45.6136C54.2309 47.8723 52.8978 49.8494 51.2069 51.5449C49.516 53.2405 47.5404 54.5728 45.2802 55.5419C43.02 56.5111 40.5933 56.9972 38.0002 57.0003"
		fill="white" />
</svg>