<svg width="20" height="20" viewBox="0 0 20 20" fill="none" xmlns="http://www.w3.org/2000/svg">
	<path
		d="M2.0602 15.455C2.29461 15.6894 2.61249 15.821 2.94395 15.821C3.2754 15.821 3.59329 15.6894 3.8277 15.455L10.0152 9.26754L16.2027 15.455C16.4385 15.6827 16.7542 15.8087 17.082 15.8059C17.4097 15.803 17.7232 15.6716 17.955 15.4398C18.1867 15.2081 18.3182 14.8945 18.321 14.5668C18.3239 14.239 18.1979 13.9233 17.9702 13.6875L10.8989 6.61629C10.6645 6.38195 10.3467 6.25031 10.0152 6.25031C9.68374 6.25031 9.36586 6.38195 9.13145 6.61629L2.0602 13.6875C1.82586 13.9219 1.69421 14.2398 1.69421 14.5713C1.69421 14.9027 1.82586 15.2206 2.0602 15.455Z"
		fill="white" />
</svg>