<svg width="23" height="26" viewBox="0 0 23 26" fill="none" xmlns="http://www.w3.org/2000/svg">
	<path
		d="M11.6302 14.8571C9.98835 14.8571 8.41377 14.2049 7.25284 13.044C6.0919 11.8831 5.43969 10.3085 5.43969 8.66667H7.91588C7.91588 9.65176 8.3072 10.5965 9.00377 11.2931C9.70033 11.9896 10.6451 12.381 11.6302 12.381C12.6153 12.381 13.56 11.9896 14.2566 11.2931C14.9531 10.5965 15.3444 9.65176 15.3444 8.66667H17.8206C17.8206 10.3085 17.1684 11.8831 16.0075 13.044C14.8466 14.2049 13.272 14.8571 11.6302 14.8571ZM11.6302 2.47619C12.6153 2.47619 13.56 2.86752 14.2566 3.56408C14.9531 4.26064 15.3444 5.20539 15.3444 6.19048H7.91588C7.91588 5.20539 8.3072 4.26064 9.00377 3.56408C9.70033 2.86752 10.6451 2.47619 11.6302 2.47619ZM20.2968 6.19048H17.8206C17.8206 5.37753 17.6605 4.57255 17.3494 3.82148C17.0383 3.07042 16.5823 2.38799 16.0075 1.81315C15.4327 1.23831 14.7502 0.782323 13.9992 0.471222C13.2481 0.160121 12.4431 0 11.6302 0C9.98835 0 8.41377 0.652209 7.25284 1.81315C6.0919 2.97409 5.43969 4.54866 5.43969 6.19048H2.9635C1.58921 6.19048 0.487305 7.29238 0.487305 8.66667V23.5238C0.487305 24.1805 0.748188 24.8104 1.21256 25.2747C1.67694 25.7391 2.30677 26 2.9635 26H20.2968C20.9536 26 21.5834 25.7391 22.0478 25.2747C22.5121 24.8104 22.773 24.1805 22.773 23.5238V8.66667C22.773 8.00994 22.5121 7.38011 22.0478 6.91574C21.5834 6.45136 20.9536 6.19048 20.2968 6.19048Z"
		fill="#062F6E" />
</svg>