<svg width="26" height="26" viewBox="0 0 26 26" fill="none" xmlns="http://www.w3.org/2000/svg">
	<rect x="5.85718" y="8" width="15" height="7" fill="#0A2653" />
	<path
		d="M13 14.8571C11.3582 14.8571 9.78365 14.2049 8.62271 13.044C7.46177 11.8831 6.80956 10.3085 6.80956 8.66667H9.28575C9.28575 9.65176 9.67707 10.5965 10.3736 11.2931C11.0702 11.9896 12.0149 12.381 13 12.381C13.9851 12.381 14.9299 11.9896 15.6264 11.2931C16.323 10.5965 16.7143 9.65176 16.7143 8.66667H19.1905C19.1905 10.3085 18.5383 11.8831 17.3774 13.044C16.2164 14.2049 14.6419 14.8571 13 14.8571ZM13 2.47619C13.9851 2.47619 14.9299 2.86752 15.6264 3.56408C16.323 4.26064 16.7143 5.20539 16.7143 6.19048H9.28575C9.28575 5.20539 9.67707 4.26064 10.3736 3.56408C11.0702 2.86752 12.0149 2.47619 13 2.47619ZM21.6667 6.19048H19.1905C19.1905 5.37753 19.0304 4.57255 18.7193 3.82148C18.4082 3.07042 17.9522 2.38799 17.3774 1.81315C16.8025 1.23831 16.1201 0.782323 15.369 0.471222C14.618 0.160121 13.813 0 13 0C11.3582 0 9.78365 0.652209 8.62271 1.81315C7.46177 2.97409 6.80956 4.54866 6.80956 6.19048H4.33337C2.95908 6.19048 1.85718 7.29238 1.85718 8.66667V23.5238C1.85718 24.1805 2.11806 24.8104 2.58244 25.2747C3.04681 25.7391 3.67664 26 4.33337 26H21.6667C22.3234 26 22.9533 25.7391 23.4176 25.2747C23.882 24.8104 24.1429 24.1805 24.1429 23.5238V8.66667C24.1429 8.00994 23.882 7.38011 23.4176 6.91574C22.9533 6.45136 22.3234 6.19048 21.6667 6.19048Z"
		fill="white" />
</svg>