<svg width="126" height="79" viewBox="0 0 126 79" fill="none" xmlns="http://www.w3.org/2000/svg">
	<path
		d="M3.50995 43.9493C10.5802 53.8888 30.506 77 62.83 77C95.2079 77 115.1 53.8778 122.164 43.9493C123.126 42.5997 123.633 41.0648 123.632 39.502C123.63 37.9392 123.121 36.4048 122.157 35.0562C115.093 25.1222 95.181 2 62.83 2C30.4791 2 10.5735 25.1112 3.50995 35.0452C2.54388 36.3956 2.03467 37.9323 2.03467 39.4973C2.03467 41.0622 2.54388 42.5989 3.50995 43.9493Z"
		stroke="#E11A1D" stroke-width="4" stroke-linejoin="round" />
	<path
		d="M62.8888 48.0098C65.2659 48.0098 67.5457 47.1091 69.2266 45.5058C70.9074 43.9026 71.8518 41.7281 71.8518 39.4607C71.8518 37.1933 70.9074 35.0189 69.2266 33.4156C67.5457 31.8123 65.2659 30.9116 62.8888 30.9116C60.5116 30.9116 58.2319 31.8123 56.551 33.4156C54.8701 35.0189 53.9258 37.1933 53.9258 39.4607C53.9258 41.7281 54.8701 43.9026 56.551 45.5058C58.2319 47.1091 60.5116 48.0098 62.8888 48.0098Z"
		fill="#E11A1D" />
	<path
		d="M69.1257 39.6163C70.7382 39.6163 72.2847 39.0104 73.4248 37.9318C74.565 36.8531 75.2056 35.3902 75.2056 33.8648C75.2056 32.3394 74.565 30.8765 73.4248 29.7979C72.2847 28.7192 70.7382 28.1133 69.1257 28.1133C67.5133 28.1133 65.9668 28.7192 64.8266 29.7979C63.6865 30.8765 63.0459 32.3394 63.0459 33.8648C63.0459 35.3902 63.6865 36.8531 64.8266 37.9318C65.9668 39.0104 67.5133 39.6163 69.1257 39.6163Z"
		fill="white" />
	<path
		d="M63.1665 59C68.7361 59 74.0775 56.9455 78.0157 53.2886C81.954 49.6316 84.1665 44.6717 84.1665 39.5C84.1665 34.3283 81.954 29.3684 78.0157 25.7114C74.0775 22.0545 68.7361 20 63.1665 20C57.597 20 52.2555 22.0545 48.3173 25.7114C44.379 29.3684 42.1665 34.3283 42.1665 39.5C42.1665 44.6717 44.379 49.6316 48.3173 53.2886C52.2555 56.9455 57.597 59 63.1665 59Z"
		stroke="#E11A1D" stroke-width="4" stroke-linejoin="round" />
</svg>