<svg width="127" height="79" viewBox="0 0 127 79" fill="none" xmlns="http://www.w3.org/2000/svg">
	<path
		d="M4.17645 43.9493C11.2467 53.8888 31.1725 77 63.4965 77C95.8744 77 115.767 53.8778 122.83 43.9493C123.793 42.5997 124.299 41.0648 124.298 39.502C124.297 37.9392 123.788 36.4048 122.823 35.0562C115.76 25.1222 95.8475 2 63.4965 2C31.1456 2 11.24 25.1112 4.17645 35.0452C3.21038 36.3956 2.70117 37.9323 2.70117 39.4973C2.70117 41.0622 3.21038 42.5989 4.17645 43.9493Z"
		stroke="#E11A1D" stroke-width="4" stroke-linejoin="round" />
	<path
		d="M63.4995 56C68.0082 56 72.3322 54.2616 75.5203 51.1673C78.7084 48.0729 80.4995 43.8761 80.4995 39.5C80.4995 35.1239 78.7084 30.9271 75.5203 27.8327C72.3322 24.7384 68.0082 23 63.4995 23C58.9908 23 54.6668 24.7384 51.4787 27.8327C48.2906 30.9271 46.4995 35.1239 46.4995 39.5C46.4995 43.8761 48.2906 48.0729 51.4787 51.1673C54.6668 54.2616 58.9908 56 63.4995 56Z"
		fill="#E11A1D" />
	<path
		d="M68.5794 41.5031C70.1918 41.5031 71.7383 40.8971 72.8785 39.8185C74.0186 38.7399 74.6592 37.2769 74.6592 35.7515C74.6592 34.2261 74.0186 32.7632 72.8785 31.6846C71.7383 30.606 70.1918 30 68.5794 30C66.9669 30 65.4204 30.606 64.2803 31.6846C63.1401 32.7632 62.4995 34.2261 62.4995 35.7515C62.4995 37.2769 63.1401 38.7399 64.2803 39.8185C65.4204 40.8971 66.9669 41.5031 68.5794 41.5031Z"
		fill="white" />
	<path
		d="M56.4995 50C57.8256 50 59.0974 49.4732 60.035 48.5355C60.9727 47.5979 61.4995 46.3261 61.4995 45C61.4995 43.6739 60.9727 42.4021 60.035 41.4645C59.0974 40.5268 57.8256 40 56.4995 40C55.1734 40 53.9017 40.5268 52.964 41.4645C52.0263 42.4021 51.4995 43.6739 51.4995 45C51.4995 46.3261 52.0263 47.5979 52.964 48.5355C53.9017 49.4732 55.1734 50 56.4995 50Z"
		fill="white" />
	<path
		d="M63.5 63.8131C70.3896 63.8131 76.9971 61.2516 81.8689 56.6919C86.7406 52.1323 89.4775 45.9481 89.4775 39.4998C89.4775 33.0515 86.7406 26.8674 81.8689 22.3077C76.9971 17.7481 70.3896 15.1865 63.5 15.1865C56.6103 15.1865 50.0028 17.7481 45.1311 22.3077C40.2594 26.8674 37.5225 33.0515 37.5225 39.4998C37.5225 45.9481 40.2594 52.1323 45.1311 56.6919C50.0028 61.2516 56.6103 63.8131 63.5 63.8131Z"
		stroke="#E11A1D" stroke-width="4" stroke-linejoin="round" />
</svg>