<svg width="28" height="28" viewBox="0 0 28 28" fill="none" xmlns="http://www.w3.org/2000/svg">
	<path
		d="M4.3102 23.3334C3.65163 23.3334 3.08805 23.1051 2.61947 22.6486C2.15088 22.192 1.91619 21.6425 1.91539 21.0001V7.00008C1.91539 6.35841 2.15008 5.8093 2.61947 5.35275C3.08885 4.89619 3.65243 4.66753 4.3102 4.66675H23.4687C24.1273 4.66675 24.6912 4.89541 25.1606 5.35275C25.63 5.81008 25.8643 6.35919 25.8635 7.00008V21.0001C25.8635 21.6417 25.6292 22.1912 25.1606 22.6486C24.692 23.1059 24.1281 23.3342 23.4687 23.3334H4.3102ZM13.8895 15.1667L4.3102 9.33341V21.0001H23.4687V9.33341L13.8895 15.1667ZM13.8895 12.8334L23.4687 7.00008H4.3102L13.8895 12.8334ZM4.3102 9.33341V7.00008V21.0001V9.33341Z"
		fill="#0A2653" />
</svg>