<svg width="94" height="94" viewBox="0 0 94 94" fill="none" xmlns="http://www.w3.org/2000/svg">
	<path
		d="M24.0868 77.5873C19.3883 77.5879 14.8777 75.7488 11.5277 72.4663C8.17766 69.1838 6.25661 64.7211 6.17874 60.0404C5.71826 55.6307 5.78477 49.1258 8.77797 41.6166C11.8377 33.9392 17.8036 25.5685 28.6917 17.4323C29.2293 17.0306 29.841 16.7384 30.4918 16.5722C31.1427 16.4061 31.8201 16.3693 32.4853 16.464C33.8287 16.6552 35.0408 17.3702 35.855 18.4519C36.6692 19.5335 37.0188 20.8931 36.8269 22.2316C36.6349 23.57 35.9172 24.7777 34.8316 25.5889C26.8293 31.5687 22.2448 37.3803 19.62 42.4629C22.0809 41.8332 24.6481 41.7325 27.1511 42.1674C29.654 42.6023 32.0354 43.5629 34.1371 44.9854C36.2388 46.4078 38.0127 48.2596 39.3408 50.4176C40.669 52.5756 41.521 54.9905 41.8404 57.5019C42.1598 60.0133 41.9391 62.5636 41.1932 64.9835C40.4472 67.4033 39.1929 69.6374 37.5137 71.5371C35.8345 73.4369 33.7688 74.9589 31.4538 76.002C29.1388 77.0452 26.6275 77.5855 24.0868 77.5873ZM70.1361 77.5873C65.4376 77.588 60.927 75.7488 57.577 72.4663C54.227 69.1839 52.3059 64.7211 52.228 60.0404C51.7676 55.6307 51.8341 49.1258 54.8273 41.6167C57.8819 33.9392 63.8529 25.5685 74.741 17.4323C75.2786 17.0306 75.8903 16.7384 76.5412 16.5722C77.1921 16.4061 77.8694 16.3693 78.5346 16.464C79.878 16.6552 81.0901 17.3702 81.9043 18.4519C82.7185 19.5335 83.0681 20.8931 82.8762 22.2316C82.6842 23.57 81.9665 24.7777 80.8809 25.5889C72.8786 31.5687 68.2941 37.3803 65.6693 42.4629C68.1302 41.8332 70.6974 41.7325 73.2004 42.1674C75.7033 42.6024 78.0847 43.5629 80.1864 44.9854C82.2881 46.4078 84.062 48.2596 85.3901 50.4176C86.7183 52.5756 87.5703 54.9905 87.8897 57.5019C88.2091 60.0133 87.9884 62.5636 87.2425 64.9835C86.4965 67.4033 85.2422 69.6374 83.563 71.5371C81.8838 73.4369 79.8181 74.9589 77.5031 76.002C75.1881 77.0452 72.6768 77.5856 70.1361 77.5873Z"
		fill="#209DC9" />
</svg>