<svg width="28" height="28" viewBox="0 0 28 28" fill="none" xmlns="http://www.w3.org/2000/svg">
	<path
		d="M22.435 17.8034L19.4717 17.4651C19.1232 17.4241 18.77 17.4627 18.4387 17.5779C18.1073 17.6931 17.8063 17.8818 17.5583 18.1301L15.4117 20.2767C12.1 18.592 9.40807 15.9001 7.72333 12.5884L9.88167 10.4301C10.3833 9.92839 10.6283 9.22839 10.5467 8.51672L10.2083 5.57672C10.1424 5.00749 9.86938 4.48242 9.44121 4.10158C9.01304 3.72075 8.4597 3.51079 7.88667 3.51172H5.86834C4.55 3.51172 3.45334 4.60839 3.535 5.92672C4.15333 15.8901 12.1217 23.8467 22.0733 24.4651C23.3917 24.5467 24.4883 23.4501 24.4883 22.1317V20.1134C24.5 18.9351 23.6133 17.9434 22.435 17.8034Z"
		fill="#0A2653" />
</svg>