<svg width="76" height="76" viewBox="0 0 76 76" fill="none" xmlns="http://www.w3.org/2000/svg">
	<circle cx="38" cy="38" r="38" fill="#209DC9" />
	<path
		d="M51.3248 18.5498C53.2145 18.5498 55.0267 19.3005 56.3629 20.6367C57.6991 21.9729 58.4498 23.7851 58.4498 25.6748V51.3248C58.4498 53.2145 57.6991 55.0267 56.3629 56.3629C55.0267 57.6991 53.2145 58.4498 51.3248 58.4498H25.6748C23.7851 58.4498 21.9729 57.6991 20.6367 56.3629C19.3005 55.0267 18.5498 53.2145 18.5498 51.3248V25.6748C18.5498 23.7851 19.3005 21.9729 20.6367 20.6367C21.9729 19.3005 23.7851 18.5498 25.6748 18.5498H51.3248ZM51.3248 21.3998H25.6748C24.541 21.3998 23.4536 21.8502 22.6519 22.6519C21.8502 23.4536 21.3998 24.541 21.3998 25.6748V51.3248C21.3998 52.4586 21.8502 53.546 22.6519 54.3477C23.4536 55.1494 24.541 55.5998 25.6748 55.5998H51.3248C52.4586 55.5998 53.546 55.1494 54.3477 54.3477C55.1494 53.546 55.5998 52.4586 55.5998 51.3248V25.6748C55.5998 24.541 55.1494 23.4536 54.3477 22.6519C53.546 21.8502 52.4586 21.3998 51.3248 21.3998ZM46.2461 35.6498C47.5172 35.6498 47.9761 35.7809 48.4406 36.0317C48.908 36.2825 49.2671 36.6416 49.5179 37.109C49.7687 37.5736 49.8998 38.0324 49.8998 39.3035V46.2461C49.8998 47.5172 49.7687 47.9761 49.5179 48.4406C49.2762 48.9005 48.9005 49.2762 48.4406 49.5179C47.9789 49.7687 47.5172 49.8998 46.2461 49.8998H30.7535C29.4824 49.8998 29.0236 49.7687 28.559 49.5179C28.0991 49.2762 27.7234 48.9005 27.4817 48.4406C27.2309 47.9789 27.0998 47.5172 27.0998 46.2461V39.3035C27.0998 38.0324 27.2309 37.5736 27.4817 37.109C27.7234 36.6491 28.0991 36.2734 28.559 36.0317C29.0236 35.7809 29.4824 35.6498 30.7535 35.6498H46.2461ZM46.799 38.5055H30.2006L29.9726 38.5198L29.9555 38.7478V46.799L29.9698 47.027L30.1978 47.0441H46.799L47.027 47.0299L47.0441 46.8019V38.7506L47.0299 38.5226L46.799 38.5055ZM48.4748 27.0998C48.8309 27.0991 49.1743 27.2318 49.4375 27.4718C49.7006 27.7117 49.8644 28.0414 49.8966 28.396C49.9288 28.7507 49.827 29.1045 49.6113 29.3879C49.3957 29.6712 49.0817 29.8636 48.7313 29.927L48.4748 29.9498H28.5248C28.1687 29.9505 27.8253 29.8178 27.5621 29.5779C27.299 29.3379 27.1352 29.0082 27.103 28.6536C27.0708 28.2989 27.1726 27.9451 27.3883 27.6617C27.604 27.3784 27.9179 27.186 28.2683 27.1226L28.5248 27.0998H48.4748Z"
		fill="white" />
</svg>