<svg width="76" height="76" viewBox="0 0 76 76" fill="none" xmlns="http://www.w3.org/2000/svg">
	<circle cx="38" cy="38" r="38" fill="#209DC9" />
	<mask id="path-2-inside-1_2369_570" fill="white">
		<path
			d="M47.0703 21.6271C44.51 18.6686 41.6285 16.0043 38.4788 13.6832C38.3372 13.5843 38.1686 13.5312 37.9958 13.5312C37.823 13.5312 37.6544 13.5843 37.5127 13.6832C34.366 16.0048 31.4873 18.6691 28.9297 21.6271C23.2702 28.1303 20.2812 34.9584 20.2812 41.3751C20.2813 46.0744 22.148 50.5812 25.471 53.9041C28.7939 57.227 33.3007 59.0938 38 59.0938C42.6993 59.0938 47.2061 57.227 50.529 53.9041C53.852 50.5812 55.7188 46.0744 55.7188 41.3751C55.7188 34.9584 52.7298 28.1303 47.0703 21.6271ZM38 57.4063C33.7496 57.4019 29.6746 55.7114 26.6691 52.706C23.6637 49.7005 21.9732 45.6255 21.9688 41.3751C21.9688 33.8024 26.4301 27.0735 30.1742 22.762C32.5321 20.0633 35.1537 17.607 38 15.4298C40.8467 17.6097 43.4684 20.0688 45.8258 22.7704C49.5699 27.0735 54.0312 33.8024 54.0312 41.3751C54.0268 45.6255 52.3363 49.7005 49.3309 52.706C46.3254 55.7114 42.2504 57.4019 38 57.4063ZM48.9561 43.2039C48.5502 45.4762 47.4574 47.5695 45.8251 49.2015C44.1927 50.8335 42.0991 51.9258 39.8267 52.3312C39.7808 52.3396 39.7342 52.3438 39.6875 52.3438C39.4769 52.3423 39.2745 52.262 39.1201 52.1188C38.9656 51.9756 38.8703 51.7799 38.8529 51.57C38.8354 51.3601 38.8971 51.1513 39.0258 50.9846C39.1545 50.8179 39.3408 50.7053 39.5483 50.669C43.3831 50.0235 46.6421 46.7645 47.2939 42.9213C47.3393 42.7083 47.4652 42.5211 47.6453 42.3989C47.8255 42.2766 48.0459 42.2288 48.2606 42.2653C48.4752 42.3018 48.6674 42.4198 48.7971 42.5947C48.9267 42.7697 48.9837 42.9879 48.9561 43.2039Z" />
	</mask>
	<path
		d="M47.0703 21.6271C44.51 18.6686 41.6285 16.0043 38.4788 13.6832C38.3372 13.5843 38.1686 13.5312 37.9958 13.5312C37.823 13.5312 37.6544 13.5843 37.5127 13.6832C34.366 16.0048 31.4873 18.6691 28.9297 21.6271C23.2702 28.1303 20.2812 34.9584 20.2812 41.3751C20.2813 46.0744 22.148 50.5812 25.471 53.9041C28.7939 57.227 33.3007 59.0938 38 59.0938C42.6993 59.0938 47.2061 57.227 50.529 53.9041C53.852 50.5812 55.7188 46.0744 55.7188 41.3751C55.7188 34.9584 52.7298 28.1303 47.0703 21.6271ZM38 57.4063C33.7496 57.4019 29.6746 55.7114 26.6691 52.706C23.6637 49.7005 21.9732 45.6255 21.9688 41.3751C21.9688 33.8024 26.4301 27.0735 30.1742 22.762C32.5321 20.0633 35.1537 17.607 38 15.4298C40.8467 17.6097 43.4684 20.0688 45.8258 22.7704C49.5699 27.0735 54.0312 33.8024 54.0312 41.3751C54.0268 45.6255 52.3363 49.7005 49.3309 52.706C46.3254 55.7114 42.2504 57.4019 38 57.4063ZM48.9561 43.2039C48.5502 45.4762 47.4574 47.5695 45.8251 49.2015C44.1927 50.8335 42.0991 51.9258 39.8267 52.3312C39.7808 52.3396 39.7342 52.3438 39.6875 52.3438C39.4769 52.3423 39.2745 52.262 39.1201 52.1188C38.9656 51.9756 38.8703 51.7799 38.8529 51.57C38.8354 51.3601 38.8971 51.1513 39.0258 50.9846C39.1545 50.8179 39.3408 50.7053 39.5483 50.669C43.3831 50.0235 46.6421 46.7645 47.2939 42.9213C47.3393 42.7083 47.4652 42.5211 47.6453 42.3989C47.8255 42.2766 48.0459 42.2288 48.2606 42.2653C48.4752 42.3018 48.6674 42.4198 48.7971 42.5947C48.9267 42.7697 48.9837 42.9879 48.9561 43.2039Z"
		fill="white" />
	<path
		d="M47.0703 21.6271L44.8018 23.5903L44.8073 23.5965L47.0703 21.6271ZM38.4788 13.6832L40.2586 11.2681L40.2277 11.2454L40.1963 11.2235L38.4788 13.6832ZM37.9958 13.5312V10.5312V13.5312ZM37.5127 13.6832L35.7952 11.2235L35.7632 11.2459L35.7317 11.2691L37.5127 13.6832ZM28.9297 21.6271L31.1927 23.5965L31.199 23.5893L28.9297 21.6271ZM20.2812 41.3751H17.2812H20.2812ZM55.7188 41.3751H58.7188H55.7188ZM38 57.4063L37.9968 60.4063L38.0032 60.4063L38 57.4063ZM21.9688 41.3751H18.9687L18.9688 41.3782L21.9688 41.3751ZM30.1742 22.762L27.915 20.7881L27.9091 20.7949L30.1742 22.762ZM38 15.4298L39.8239 13.0479L38.001 11.652L36.1773 13.047L38 15.4298ZM45.8258 22.7704L48.089 20.8012L48.0862 20.7979L45.8258 22.7704ZM54.0312 41.3751L57.0312 41.3782V41.3751H54.0312ZM48.9561 43.2039L51.9094 43.7314L51.9225 43.6579L51.9319 43.5838L48.9561 43.2039ZM39.8267 52.3312L39.2999 49.3778L39.2886 49.3798L39.8267 52.3312ZM39.6875 52.3438L39.6653 55.3438L39.6779 55.3438L39.6904 55.3438L39.6875 52.3438ZM39.5483 50.669L39.0503 47.7106L39.0407 47.7122L39.0311 47.7139L39.5483 50.669ZM47.2939 42.9213L44.3598 42.2961L44.3467 42.3576L44.3361 42.4196L47.2939 42.9213ZM47.0703 21.6271L49.3388 19.664C46.6329 16.5372 43.5874 13.7212 40.2586 11.2681L38.4788 13.6832L36.6991 16.0983C39.6696 18.2873 42.3872 20.8001 44.8018 23.5903L47.0703 21.6271ZM38.4788 13.6832L40.1963 11.2235C39.551 10.7729 38.7829 10.5312 37.9958 10.5312V13.5312V16.5312C37.5542 16.5312 37.1233 16.3957 36.7613 16.1429L38.4788 13.6832ZM37.9958 13.5312V10.5312C37.2087 10.5312 36.4406 10.7729 35.7952 11.2235L37.5127 13.6832L39.2302 16.1429C38.8682 16.3957 38.4373 16.5312 37.9958 16.5312V13.5312ZM37.5127 13.6832L35.7317 11.2691C32.406 13.7227 29.3635 16.5387 26.6604 19.6649L28.9297 21.6271L31.199 23.5893C33.6112 20.7996 36.3261 18.2868 39.2938 16.0973L37.5127 13.6832ZM28.9297 21.6271L26.6666 19.6577C20.6964 26.518 17.2812 34.0182 17.2812 41.3751H20.2812H23.2812C23.2812 35.8986 25.8441 29.7426 31.1927 23.5965L28.9297 21.6271ZM20.2812 41.3751H17.2812C17.2812 46.87 19.4641 52.1399 23.3496 56.0254L25.471 53.9041L27.5923 51.7828C24.832 49.0225 23.2812 45.2787 23.2812 41.3751H20.2812ZM25.471 53.9041L23.3496 56.0254C27.2352 59.911 32.505 62.0938 38 62.0938V59.0938V56.0938C34.0963 56.0938 30.3526 54.5431 27.5923 51.7828L25.471 53.9041ZM38 59.0938V62.0938C43.495 62.0938 48.7649 59.911 52.6504 56.0254L50.529 53.9041L48.4077 51.7828C45.6474 54.5431 41.9037 56.0938 38 56.0938V59.0938ZM50.529 53.9041L52.6504 56.0254C56.5359 52.1399 58.7188 46.87 58.7188 41.3751H55.7188H52.7188C52.7188 45.2787 51.168 49.0225 48.4077 51.7828L50.529 53.9041ZM55.7188 41.3751H58.7188C58.7188 34.0182 55.3036 26.518 49.3334 19.6577L47.0703 21.6271L44.8073 23.5965C50.1559 29.7426 52.7188 35.8986 52.7188 41.3751H55.7188ZM38 57.4063L38.0032 54.4063C34.5473 54.4027 31.2341 53.0283 28.7904 50.5846L26.6691 52.706L24.5478 54.8273C28.1151 58.3946 32.9519 60.401 37.9968 60.4063L38 57.4063ZM26.6691 52.706L28.7904 50.5846C26.3468 48.141 24.9724 44.8278 24.9687 41.3719L21.9688 41.3751L18.9688 41.3782C18.9741 46.4232 20.9805 51.26 24.5478 54.8273L26.6691 52.706ZM21.9688 41.3751H24.9688C24.9688 34.9128 28.8309 28.8843 32.4393 24.729L30.1742 22.762L27.9091 20.7949C24.0292 25.2628 18.9688 32.6921 18.9688 41.3751H21.9688ZM30.1742 22.762L32.4334 24.7358C34.6597 22.1877 37.1351 19.8684 39.8227 17.8126L38 15.4298L36.1773 13.047C33.1722 15.3457 30.4044 17.9389 27.915 20.7881L30.1742 22.762ZM38 15.4298L36.1761 17.8116C38.864 19.87 41.3394 22.1919 43.5654 24.7428L45.8258 22.7704L48.0862 20.7979C45.5973 17.9457 42.8294 15.3494 39.8239 13.0479L38 15.4298ZM45.8258 22.7704L43.5626 24.7396C47.1689 28.8844 51.0312 34.9129 51.0312 41.3751H54.0312H57.0312C57.0312 32.692 51.9709 25.2627 48.089 20.8012L45.8258 22.7704ZM54.0312 41.3751L51.0313 41.3719C51.0276 44.8278 49.6532 48.141 47.2096 50.5846L49.3309 52.706L51.4522 54.8273C55.0195 51.26 57.0259 46.4232 57.0312 41.3782L54.0312 41.3751ZM49.3309 52.706L47.2096 50.5846C44.7659 53.0283 41.4527 54.4027 37.9968 54.4063L38 57.4063L38.0032 60.4063C43.0481 60.401 47.8849 58.3946 51.4522 54.8273L49.3309 52.706ZM48.9561 43.2039L46.0028 42.6764C45.7048 44.3448 44.9025 45.8817 43.704 47.08L45.8251 49.2015L47.9461 51.3231C50.0124 49.2573 51.3956 46.6077 51.9094 43.7314L48.9561 43.2039ZM45.8251 49.2015L43.704 47.08C42.5054 48.2782 40.9684 49.0802 39.2999 49.3778L39.8267 52.3312L40.3535 55.2846C43.2299 54.7715 45.8799 53.3889 47.9461 51.3231L45.8251 49.2015ZM39.8267 52.3312L39.2886 49.3798C39.4193 49.356 39.5518 49.344 39.6846 49.3438L39.6875 52.3438L39.6904 55.3438C39.9166 55.3436 40.1423 55.3231 40.3648 55.2825L39.8267 52.3312ZM39.6875 52.3438L39.7097 49.3439C40.2479 49.3479 40.7651 49.553 41.1598 49.9189L39.1201 52.1188L37.0804 54.3187C37.7839 54.971 38.7059 55.3367 39.6653 55.3438L39.6875 52.3438ZM39.1201 52.1188L41.1598 49.9189C41.5544 50.2848 41.798 50.7851 41.8426 51.3215L38.8529 51.57L35.8632 51.8185C35.9427 52.7746 36.3769 53.6664 37.0804 54.3187L39.1201 52.1188ZM38.8529 51.57L41.8426 51.3215C41.8872 51.8578 41.7296 52.3915 41.4007 52.8175L39.0258 50.9846L36.6509 49.1516C36.0647 49.9112 35.7837 50.8624 35.8632 51.8185L38.8529 51.57ZM39.0258 50.9846L41.4007 52.8175C41.0719 53.2436 40.5956 53.5313 40.0655 53.6241L39.5483 50.669L39.0311 47.7139C38.0861 47.8793 37.237 48.3921 36.6509 49.1516L39.0258 50.9846ZM39.5483 50.669L40.0462 53.6274C45.1438 52.7694 49.3869 48.5217 50.2517 43.4229L47.2939 42.9213L44.3361 42.4196C43.8973 45.0074 41.6225 47.2777 39.0503 47.7106L39.5483 50.669ZM47.2939 42.9213L50.2281 43.5464C50.1121 44.0905 49.7903 44.5688 49.3299 44.8813L47.6453 42.3989L45.9608 39.9165C45.1401 40.4735 44.5664 41.3261 44.3598 42.2961L47.2939 42.9213ZM47.6453 42.3989L49.3299 44.8813C48.8695 45.1937 48.3062 45.3161 47.7577 45.2228L48.2606 42.2653L48.7635 39.3077C47.7857 39.1414 46.7815 39.3596 45.9608 39.9165L47.6453 42.3989ZM48.2606 42.2653L47.7577 45.2228C47.2091 45.1295 46.7179 44.8278 46.3867 44.3808L48.7971 42.5947L51.2075 40.8087C50.617 40.0118 49.7413 39.474 48.7635 39.3077L48.2606 42.2653ZM48.7971 42.5947L46.3867 44.3808C46.0554 43.9337 45.9098 43.3759 45.9802 42.824L48.9561 43.2039L51.9319 43.5838C52.0575 42.5999 51.798 41.6056 51.2075 40.8087L48.7971 42.5947Z"
		fill="white" mask="url(#path-2-inside-1_2369_570)" />
</svg>